<?xml version="1.0" encoding="UTF-8" standalone="no"?><!DOCTYPE svg PUBLIC "-//W3C//DTD SVG 1.1//EN" "http://www.w3.org/Graphics/SVG/1.1/DTD/svg11.dtd"><!-- Generated by graphviz version 2.40.1 (20161225.0304)
 --><!-- Title: OntologyDAG Pages: 1 --><svg xmlns="http://www.w3.org/2000/svg" xmlns:xlink="http://www.w3.org/1999/xlink" width="388pt" height="332pt" viewBox="0.00 0.00 388.00 332.00">
<g id="graph0" class="graph" transform="scale(1 1) rotate(0) translate(4 328)">
<title>OntologyDAG</title>
<polygon fill="#ffffff" stroke="transparent" points="-4,4 -4,-328 384,-328 384,4 -4,4"/>
<!-- I -->
<g id="node1" class="node">
<title>I</title>
<ellipse fill="#40e0d0" stroke="#000000" cx="82" cy="-90" rx="27" ry="18"/>
<text text-anchor="middle" x="82" y="-85.8" font-family="Times,serif" font-size="14.00" fill="#000000">I</text>
</g>
<!-- E -->
<g id="node3" class="node">
<title>E</title>
<ellipse fill="#40e0d0" stroke="#000000" cx="118" cy="-18" rx="27" ry="18"/>
<text text-anchor="middle" x="118" y="-13.8" font-family="Times,serif" font-size="14.00" fill="#000000">E</text>
</g>
<!-- I&#45;&gt;E -->
<g id="edge8" class="edge">
<title>I-&gt;E</title>
<path fill="none" stroke="#000000" d="M90.7146,-72.5708C94.9597,-64.0807 100.1536,-53.6929 104.8663,-44.2674"/>
<polygon fill="#000000" stroke="#000000" points="108.024,-45.7782 109.3657,-35.2687 101.763,-42.6477 108.024,-45.7782"/>
</g>
<!-- D -->
<g id="node2" class="node">
<title>D</title>
<ellipse fill="#40e0d0" stroke="#000000" cx="154" cy="-90" rx="27" ry="18"/>
<text text-anchor="middle" x="154" y="-85.8" font-family="Times,serif" font-size="14.00" fill="#000000">D</text>
</g>
<!-- D&#45;&gt;E -->
<g id="edge4" class="edge">
<title>D-&gt;E</title>
<path fill="none" stroke="#000000" d="M145.2854,-72.5708C141.0403,-64.0807 135.8464,-53.6929 131.1337,-44.2674"/>
<polygon fill="#000000" stroke="#000000" points="134.237,-42.6477 126.6343,-35.2687 127.976,-45.7782 134.237,-42.6477"/>
</g>
<!-- M -->
<g id="node4" class="node">
<title>M</title>
<ellipse fill="none" stroke="#000000" cx="137" cy="-234" rx="27" ry="18"/>
<text text-anchor="middle" x="137" y="-229.8" font-family="Times,serif" font-size="14.00" fill="#000000">M</text>
</g>
<!-- N -->
<g id="node5" class="node">
<title>N</title>
<ellipse fill="none" stroke="#000000" cx="137" cy="-162" rx="27" ry="18"/>
<text text-anchor="middle" x="137" y="-157.8" font-family="Times,serif" font-size="14.00" fill="#000000">N</text>
</g>
<!-- M&#45;&gt;N -->
<g id="edge9" class="edge">
<title>M-&gt;N</title>
<path fill="none" stroke="#000000" d="M137,-215.8314C137,-208.131 137,-198.9743 137,-190.4166"/>
<polygon fill="#000000" stroke="#000000" points="140.5001,-190.4132 137,-180.4133 133.5001,-190.4133 140.5001,-190.4132"/>
</g>
<!-- N&#45;&gt;I -->
<g id="edge10" class="edge">
<title>N-&gt;I</title>
<path fill="none" stroke="#000000" d="M124.5196,-145.6621C117.4876,-136.4564 108.5653,-124.7764 100.7117,-114.4953"/>
<polygon fill="#000000" stroke="#000000" points="103.2828,-112.0953 94.431,-106.2733 97.72,-116.3446 103.2828,-112.0953"/>
</g>
<!-- N&#45;&gt;D -->
<g id="edge11" class="edge">
<title>N-&gt;D</title>
<path fill="none" stroke="#000000" d="M141.2022,-144.2022C143.0821,-136.2406 145.3425,-126.6671 147.4371,-117.7957"/>
<polygon fill="#000000" stroke="#000000" points="150.8955,-118.3792 149.7872,-107.8425 144.0828,-116.7706 150.8955,-118.3792"/>
</g>
<!-- F -->
<g id="node6" class="node">
<title>F</title>
<ellipse fill="#40e0d0" stroke="#000000" cx="182" cy="-306" rx="27" ry="18"/>
<text text-anchor="middle" x="182" y="-301.8" font-family="Times,serif" font-size="14.00" fill="#000000">F</text>
</g>
<!-- F&#45;&gt;I -->
<g id="edge12" class="edge">
<title>F-&gt;I</title>
<path fill="none" stroke="#000000" d="M158.2732,-296.8381C139.4386,-288.2421 114.1577,-273.4717 101,-252 75.7667,-210.8225 75.7212,-152.6128 78.5027,-118.3387"/>
<polygon fill="#000000" stroke="#000000" points="82.0135,-118.3904 79.4767,-108.1038 75.045,-117.7272 82.0135,-118.3904"/>
</g>
<!-- G -->
<g id="node7" class="node">
<title>G</title>
<ellipse fill="#40e0d0" stroke="#000000" cx="281" cy="-234" rx="27" ry="18"/>
<text text-anchor="middle" x="281" y="-229.8" font-family="Times,serif" font-size="14.00" fill="#000000">G</text>
</g>
<!-- F&#45;&gt;G -->
<g id="edge5" class="edge">
<title>F-&gt;G</title>
<path fill="none" stroke="#000000" d="M200.6211,-292.4574C215.6935,-281.4956 237.1254,-265.9088 254.0687,-253.5864"/>
<polygon fill="#000000" stroke="#000000" points="256.4336,-256.1943 262.4624,-247.4819 252.3164,-250.5331 256.4336,-256.1943"/>
</g>
<!-- C -->
<g id="node8" class="node">
<title>C</title>
<ellipse fill="#40e0d0" stroke="#000000" cx="245" cy="-162" rx="27" ry="18"/>
<text text-anchor="middle" x="245" y="-157.8" font-family="Times,serif" font-size="14.00" fill="#000000">C</text>
</g>
<!-- G&#45;&gt;C -->
<g id="edge6" class="edge">
<title>G-&gt;C</title>
<path fill="none" stroke="#000000" d="M272.2854,-216.5708C268.0403,-208.0807 262.8464,-197.6929 258.1337,-188.2674"/>
<polygon fill="#000000" stroke="#000000" points="261.237,-186.6477 253.6343,-179.2687 254.976,-189.7782 261.237,-186.6477"/>
</g>
<!-- C&#45;&gt;D -->
<g id="edge3" class="edge">
<title>C-&gt;D</title>
<path fill="none" stroke="#000000" d="M227.4543,-148.1177C213.8581,-137.3602 194.8247,-122.3009 179.5396,-110.2072"/>
<polygon fill="#000000" stroke="#000000" points="181.5058,-107.2998 171.4919,-103.8397 177.1624,-112.7893 181.5058,-107.2998"/>
</g>
<!-- A -->
<g id="node9" class="node">
<title>A</title>
<ellipse fill="none" stroke="#000000" cx="353" cy="-306" rx="27" ry="18"/>
<text text-anchor="middle" x="353" y="-301.8" font-family="Times,serif" font-size="14.00" fill="#000000">A</text>
</g>
<!-- B -->
<g id="node10" class="node">
<title>B</title>
<ellipse fill="none" stroke="#000000" cx="353" cy="-234" rx="27" ry="18"/>
<text text-anchor="middle" x="353" y="-229.8" font-family="Times,serif" font-size="14.00" fill="#000000">B</text>
</g>
<!-- A&#45;&gt;B -->
<g id="edge1" class="edge">
<title>A-&gt;B</title>
<path fill="none" stroke="#000000" d="M353,-287.8314C353,-280.131 353,-270.9743 353,-262.4166"/>
<polygon fill="#000000" stroke="#000000" points="356.5001,-262.4132 353,-252.4133 349.5001,-262.4133 356.5001,-262.4132"/>
</g>
<!-- B&#45;&gt;C -->
<g id="edge2" class="edge">
<title>B-&gt;C</title>
<path fill="none" stroke="#000000" d="M333.6918,-221.1278C316.6445,-209.763 291.5981,-193.0654 272.4656,-180.3104"/>
<polygon fill="#000000" stroke="#000000" points="274.4031,-177.3956 264.1411,-174.7607 270.5201,-183.2199 274.4031,-177.3956"/>
</g>
<!-- H -->
<g id="node11" class="node">
<title>H</title>
<ellipse fill="none" stroke="#000000" cx="27" cy="-162" rx="27" ry="18"/>
<text text-anchor="middle" x="27" y="-157.8" font-family="Times,serif" font-size="14.00" fill="#000000">H</text>
</g>
<!-- H&#45;&gt;I -->
<g id="edge7" class="edge">
<title>H-&gt;I</title>
<path fill="none" stroke="#000000" d="M39.4804,-145.6621C46.5124,-136.4564 55.4347,-124.7764 63.2883,-114.4953"/>
<polygon fill="#000000" stroke="#000000" points="66.28,-116.3446 69.569,-106.2733 60.7172,-112.0953 66.28,-116.3446"/>
</g>
<!-- J -->
<g id="node12" class="node">
<title>J</title>
<ellipse fill="none" stroke="#000000" cx="209" cy="-234" rx="27" ry="18"/>
<text text-anchor="middle" x="209" y="-229.8" font-family="Times,serif" font-size="14.00" fill="#000000">J</text>
</g>
<!-- J&#45;&gt;C -->
<g id="edge13" class="edge">
<title>J-&gt;C</title>
<path fill="none" stroke="#000000" d="M217.7146,-216.5708C221.9597,-208.0807 227.1536,-197.6929 231.8663,-188.2674"/>
<polygon fill="#000000" stroke="#000000" points="235.024,-189.7782 236.3657,-179.2687 228.763,-186.6477 235.024,-189.7782"/>
</g>
</g>
</svg>