<?xml version="1.0" encoding="UTF-8" standalone="no"?><!DOCTYPE svg PUBLIC "-//W3C//DTD SVG 1.1//EN" "http://www.w3.org/Graphics/SVG/1.1/DTD/svg11.dtd"><!-- Generated by graphviz version 2.40.1 (20161225.0304)
 --><!-- Title: OntologyDAG Pages: 1 --><svg xmlns="http://www.w3.org/2000/svg" xmlns:xlink="http://www.w3.org/1999/xlink" width="344pt" height="404pt" viewBox="0.00 0.00 344.00 404.00">
<g id="graph0" class="graph" transform="scale(1 1) rotate(0) translate(4 400)">
<title>OntologyDAG</title>
<polygon fill="#ffffff" stroke="transparent" points="-4,4 -4,-400 340.0028,-400 340.0028,4 -4,4"/>
<!-- I -->
<g id="node1" class="node">
<title>I</title>
<ellipse fill="none" stroke="#000000" cx="82" cy="-162" rx="27" ry="18"/>
<text text-anchor="middle" x="82" y="-157.8" font-family="Times,serif" font-size="14.00" fill="#000000">I</text>
</g>
<!-- D -->
<g id="node2" class="node">
<title>D</title>
<ellipse fill="none" stroke="#000000" cx="82" cy="-90" rx="27" ry="18"/>
<text text-anchor="middle" x="82" y="-85.8" font-family="Times,serif" font-size="14.00" fill="#000000">D</text>
</g>
<!-- I&#45;&gt;D -->
<g id="edge8" class="edge">
<title>I-&gt;D</title>
<path fill="none" stroke="#000000" d="M82,-143.8314C82,-136.131 82,-126.9743 82,-118.4166"/>
<polygon fill="#000000" stroke="#000000" points="85.5001,-118.4132 82,-108.4133 78.5001,-118.4133 85.5001,-118.4132"/>
</g>
<!-- E -->
<g id="node3" class="node">
<title>E</title>
<ellipse fill="none" stroke="#000000" cx="54" cy="-18" rx="27" ry="18"/>
<text text-anchor="middle" x="54" y="-13.8" font-family="Times,serif" font-size="14.00" fill="#000000">E</text>
</g>
<!-- D&#45;&gt;E -->
<g id="edge4" class="edge">
<title>D-&gt;E</title>
<path fill="none" stroke="#000000" d="M75.222,-72.5708C72.0128,-64.3187 68.1065,-54.2738 64.5242,-45.0623"/>
<polygon fill="#000000" stroke="#000000" points="67.6992,-43.5697 60.8126,-35.5182 61.1752,-46.1069 67.6992,-43.5697"/>
</g>
<!-- M -->
<g id="node4" class="node">
<title>M</title>
<ellipse fill="none" stroke="#000000" cx="55" cy="-306" rx="27" ry="18"/>
<text text-anchor="middle" x="55" y="-301.8" font-family="Times,serif" font-size="14.00" fill="#000000">M</text>
</g>
<!-- N -->
<g id="node5" class="node">
<title>N</title>
<ellipse fill="none" stroke="#000000" cx="27" cy="-234" rx="27" ry="18"/>
<text text-anchor="middle" x="27" y="-229.8" font-family="Times,serif" font-size="14.00" fill="#000000">N</text>
</g>
<!-- M&#45;&gt;N -->
<g id="edge10" class="edge">
<title>M-&gt;N</title>
<path fill="none" stroke="#000000" d="M48.222,-288.5708C45.0128,-280.3187 41.1065,-270.2738 37.5242,-261.0623"/>
<polygon fill="#000000" stroke="#000000" points="40.6992,-259.5697 33.8126,-251.5182 34.1752,-262.1069 40.6992,-259.5697"/>
</g>
<!-- N&#45;&gt;I -->
<g id="edge11" class="edge">
<title>N-&gt;I</title>
<path fill="none" stroke="#000000" d="M39.4804,-217.6621C46.5124,-208.4564 55.4347,-196.7764 63.2883,-186.4953"/>
<polygon fill="#000000" stroke="#000000" points="66.28,-188.3446 69.569,-178.2733 60.7172,-184.0953 66.28,-188.3446"/>
</g>
<!-- N&#45;&gt;E -->
<g id="edge12" class="edge">
<title>N-&gt;E</title>
<path fill="none" stroke="#000000" d="M28.9309,-215.9984C32.1813,-186.0729 39.0721,-124.2135 46,-72 47.1219,-63.5445 48.4438,-54.3601 49.6863,-46.0043"/>
<polygon fill="#000000" stroke="#000000" points="53.1675,-46.3907 51.1967,-35.9808 46.2456,-45.3476 53.1675,-46.3907"/>
</g>
<!-- F -->
<g id="node6" class="node">
<title>F</title>
<ellipse fill="none" stroke="#000000" cx="182" cy="-306" rx="27" ry="18"/>
<text text-anchor="middle" x="182" y="-301.8" font-family="Times,serif" font-size="14.00" fill="#000000">F</text>
</g>
<!-- F&#45;&gt;I -->
<g id="edge13" class="edge">
<title>F-&gt;I</title>
<path fill="none" stroke="#000000" d="M158.7796,-296.5117C140.2463,-287.7214 115.1239,-272.8489 101,-252 88.6637,-233.7898 84.1019,-209.1223 82.5199,-190.2172"/>
<polygon fill="#000000" stroke="#000000" points="86.0062,-189.8847 81.9067,-180.1152 79.0191,-190.3089 86.0062,-189.8847"/>
</g>
<!-- G -->
<g id="node7" class="node">
<title>G</title>
<ellipse fill="none" stroke="#000000" cx="209" cy="-234" rx="27" ry="18"/>
<text text-anchor="middle" x="209" y="-229.8" font-family="Times,serif" font-size="14.00" fill="#000000">G</text>
</g>
<!-- F&#45;&gt;G -->
<g id="edge5" class="edge">
<title>F-&gt;G</title>
<path fill="none" stroke="#000000" d="M188.6742,-288.2022C191.7476,-280.0064 195.4616,-270.1024 198.8695,-261.0145"/>
<polygon fill="#000000" stroke="#000000" points="202.1685,-262.1853 202.4026,-251.593 195.6142,-259.7274 202.1685,-262.1853"/>
</g>
<!-- C -->
<g id="node8" class="node">
<title>C</title>
<ellipse fill="none" stroke="#000000" cx="245" cy="-162" rx="27" ry="18"/>
<text text-anchor="middle" x="245" y="-157.8" font-family="Times,serif" font-size="14.00" fill="#000000">C</text>
</g>
<!-- G&#45;&gt;C -->
<g id="edge6" class="edge">
<title>G-&gt;C</title>
<path fill="none" stroke="#000000" d="M217.7146,-216.5708C221.9597,-208.0807 227.1536,-197.6929 231.8663,-188.2674"/>
<polygon fill="#000000" stroke="#000000" points="235.024,-189.7782 236.3657,-179.2687 228.763,-186.6477 235.024,-189.7782"/>
</g>
<!-- C&#45;&gt;D -->
<g id="edge3" class="edge">
<title>C-&gt;D</title>
<path fill="none" stroke="#000000" d="M222.3355,-151.9887C194.1927,-139.5575 146.0084,-118.2736 114.0806,-104.1706"/>
<polygon fill="#000000" stroke="#000000" points="115.2957,-100.8811 104.7341,-100.0421 112.4673,-107.2842 115.2957,-100.8811"/>
</g>
<!-- A -->
<g id="node9" class="node">
<title>A</title>
<ellipse fill="none" stroke="#000000" cx="281" cy="-306" rx="27" ry="18"/>
<text text-anchor="middle" x="281" y="-301.8" font-family="Times,serif" font-size="14.00" fill="#000000">A</text>
</g>
<!-- B -->
<g id="node10" class="node">
<title>B</title>
<ellipse fill="none" stroke="#000000" cx="281" cy="-234" rx="27" ry="18"/>
<text text-anchor="middle" x="281" y="-229.8" font-family="Times,serif" font-size="14.00" fill="#000000">B</text>
</g>
<!-- A&#45;&gt;B -->
<g id="edge1" class="edge">
<title>A-&gt;B</title>
<path fill="none" stroke="#000000" d="M281,-287.8314C281,-280.131 281,-270.9743 281,-262.4166"/>
<polygon fill="#000000" stroke="#000000" points="284.5001,-262.4132 281,-252.4133 277.5001,-262.4133 284.5001,-262.4132"/>
</g>
<!-- B&#45;&gt;C -->
<g id="edge2" class="edge">
<title>B-&gt;C</title>
<path fill="none" stroke="#000000" d="M272.2854,-216.5708C268.0403,-208.0807 262.8464,-197.6929 258.1337,-188.2674"/>
<polygon fill="#000000" stroke="#000000" points="261.237,-186.6477 253.6343,-179.2687 254.976,-189.7782 261.237,-186.6477"/>
</g>
<!-- H -->
<g id="node11" class="node">
<title>H</title>
<ellipse fill="none" stroke="#000000" cx="137" cy="-234" rx="27" ry="18"/>
<text text-anchor="middle" x="137" y="-229.8" font-family="Times,serif" font-size="14.00" fill="#000000">H</text>
</g>
<!-- H&#45;&gt;I -->
<g id="edge7" class="edge">
<title>H-&gt;I</title>
<path fill="none" stroke="#000000" d="M124.5196,-217.6621C117.4876,-208.4564 108.5653,-196.7764 100.7117,-186.4953"/>
<polygon fill="#000000" stroke="#000000" points="103.2828,-184.0953 94.431,-178.2733 97.72,-188.3446 103.2828,-184.0953"/>
</g>
<!-- J -->
<g id="node12" class="node">
<title>J</title>
<ellipse fill="none" stroke="#000000" cx="154" cy="-378" rx="27" ry="18"/>
<text text-anchor="middle" x="154" y="-373.8" font-family="Times,serif" font-size="14.00" fill="#000000">J</text>
</g>
<!-- J&#45;&gt;M -->
<g id="edge9" class="edge">
<title>J-&gt;M</title>
<path fill="none" stroke="#000000" d="M135.3789,-364.4574C120.3065,-353.4956 98.8746,-337.9088 81.9313,-325.5864"/>
<polygon fill="#000000" stroke="#000000" points="83.6836,-322.5331 73.5376,-319.4819 79.5664,-328.1943 83.6836,-322.5331"/>
</g>
<!-- J&#45;&gt;C -->
<g id="edge14" class="edge">
<title>J-&gt;C</title>
<path fill="none" stroke="#000000" d="M180.2559,-373.1371C222.0769,-364.7979 300.7686,-346.4762 317,-324 345.1019,-285.0862 338.4663,-258.9325 317,-216 308.5514,-199.1028 292.023,-186.1213 276.9314,-177.1258"/>
<polygon fill="#000000" stroke="#000000" points="278.2445,-173.8508 267.8054,-172.0405 274.8371,-179.9655 278.2445,-173.8508"/>
</g>
</g>
</svg>